<svg width="30" height="30" viewBox="0 0 30 30" fill="none" xmlns="http://www.w3.org/2000/svg">
<path d="M14.2479 0.00485362C11.8404 0.0339161 6.66445 0.429541 3.76945 3.08548C1.61601 5.21923 0.864139 8.37392 0.776014 12.2749C0.702889 16.1617 0.614764 23.4611 7.6507 25.4486V28.4758C7.6507 28.4758 7.60664 29.687 8.40727 29.9355C9.39351 30.2477 9.95508 29.3158 10.8926 28.3145L12.641 26.3374C17.4551 26.7377 21.1423 25.8152 21.5669 25.6783C22.5438 25.3661 28.046 24.663 28.9451 17.3627C29.8676 9.82329 28.496 5.07298 26.0201 2.92423H26.0051C25.2579 2.2361 22.2551 0.0479786 15.5463 0.0236036C15.5463 0.0236036 15.0485 -0.0101464 14.2479 0.00391612V0.00485362ZM14.3304 2.12454C15.0138 2.11985 15.4291 2.14892 15.4291 2.14892C21.1076 2.16392 23.8179 3.87298 24.4573 4.4486C26.5423 6.23548 27.6166 10.518 26.8301 16.8124C26.0829 22.9155 21.6204 23.3017 20.7945 23.5652C20.4429 23.6777 17.1954 24.4783 13.1041 24.2149C13.1041 24.2149 10.0573 27.8917 9.10476 28.8386C8.95383 29.0045 8.77758 29.0533 8.66508 29.0289C8.50383 28.9895 8.45508 28.7899 8.46445 28.5161L8.49352 23.492C2.52633 21.842 2.87789 15.6161 2.94164 12.3639C3.01476 9.11173 3.62508 6.4511 5.44195 4.64923C7.88789 2.43767 12.2829 2.13954 14.3285 2.12454H14.3304ZM14.7804 5.37579C14.5751 5.3711 14.4045 5.54173 14.4045 5.74704C14.4045 5.95704 14.5751 6.12298 14.7804 6.12298C16.6601 6.08923 18.4723 6.80173 19.8195 8.11048C21.1816 9.43329 21.8454 11.2108 21.8707 13.5349C21.8707 13.7402 22.0366 13.9108 22.2466 13.9108V13.8958C22.452 13.8958 22.6226 13.7299 22.6226 13.5245C22.7154 11.313 21.8951 9.16423 20.3566 7.57235C18.8726 6.12204 16.992 5.37485 14.7804 5.37485V5.37579ZM9.83883 6.23548C9.57539 6.1961 9.30164 6.25048 9.07195 6.38642H9.05227C8.54414 6.68454 8.0707 7.06048 7.62164 7.56298C7.27945 7.9586 7.09383 8.35892 7.04508 8.74423C7.01601 8.97392 7.0357 9.2036 7.10414 9.42298L7.12851 9.43798C7.51383 10.5705 8.01726 11.6599 8.63226 12.6855C9.42351 14.1255 10.3995 15.4586 11.5329 16.6502L11.5666 16.6989L11.6201 16.7383L11.6538 16.7777L11.6932 16.8114C12.8895 17.9495 14.2226 18.9255 15.6682 19.7261C17.3182 20.6242 18.3195 21.0489 18.9204 21.2252V21.2345C19.0966 21.288 19.257 21.3124 19.4182 21.3124C19.931 21.273 20.4148 21.0686 20.7954 20.7217C21.2838 20.282 21.6691 19.7992 21.9579 19.2864V19.277C22.2457 18.7352 22.1482 18.2224 21.7329 17.8755C20.9032 17.148 19.9995 16.503 19.047 15.947C18.4076 15.6002 17.7579 15.8102 17.4944 16.1617L16.9329 16.8695C16.6451 17.2211 16.122 17.1724 16.122 17.1724L16.107 17.1817C12.206 16.1852 11.1654 12.2355 11.1654 12.2355C11.1654 12.2355 11.1166 11.6983 11.4776 11.4245L12.1807 10.8583C12.5173 10.5845 12.7516 9.93579 12.3907 9.29548C11.8385 8.33829 11.1945 7.44017 10.467 6.60954C10.3104 6.41454 10.0863 6.28235 9.83695 6.2336L9.83883 6.23548ZM15.4291 7.34923C14.9313 7.34923 14.9313 8.1011 15.4338 8.1011C16.6835 8.12079 17.8751 8.63829 18.7441 9.53642C19.5354 10.4102 19.9451 11.5727 19.8673 12.7492C19.872 12.9545 20.0379 13.1205 20.2432 13.1205L20.2582 13.1402C20.4635 13.1402 20.6341 12.9695 20.6341 12.7642C20.6679 11.2745 20.2048 10.0249 19.2963 9.0236C18.3832 8.02235 17.1091 7.46079 15.4826 7.34923C15.4629 7.34923 15.4488 7.34923 15.4291 7.34923ZM16.0451 9.37048C15.5323 9.35548 15.5126 10.1224 16.0207 10.1374C17.2563 10.2011 17.8563 10.8255 17.9351 12.1099C17.9398 12.3152 18.1057 12.4764 18.3063 12.4764H18.3213C18.5313 12.467 18.6973 12.2861 18.6823 12.0761C18.5941 10.4017 17.681 9.4586 16.0601 9.37142C16.0554 9.37142 16.0507 9.37142 16.0451 9.37142V9.37048Z" fill="white"/>
</svg>
